<svg width="41" height="48" viewBox="0 0 41 48" fill="none" xmlns="http://www.w3.org/2000/svg">
<path d="M2.43066 48H32.8309C34.1562 48 35.2307 46.9255 35.2307 45.5999V7.99988H38.4307C39.3143 7.99988 40.0306 7.28357 40.0306 6.3999V4.00012C40.0281 1.79187 38.2388 0.00256348 36.0309 0H2.43066C1.10535 0 0.0308838 1.07446 0.0308838 2.40015V36C0.0308838 36.4417 0.389038 36.8002 0.830688 36.8002C1.27271 36.8002 1.63086 36.4417 1.63086 36V2.40015C1.63086 1.95813 1.98901 1.59998 2.43066 1.59998C3.75635 1.59998 4.83081 2.67444 4.83081 4.00012V6.3999C4.83081 7.28357 5.54712 7.99988 6.43079 7.99988H33.6307V45.5999C33.6307 46.0419 33.2726 46.4 32.8309 46.4H2.43066C1.98901 46.4 1.63086 46.0419 1.63086 45.5999V42.3999C1.63086 41.9583 1.27271 41.6001 0.830688 41.6001C0.389038 41.6001 0.0308838 41.9583 0.0308838 42.3999V45.5999C0.0308838 46.9255 1.10535 48 2.43066 48ZM5.61011 1.59998H36.0309C37.3562 1.59998 38.4307 2.67444 38.4307 4.00012V6.3999H6.43079V4.00012C6.42786 3.13147 6.13928 2.28845 5.61011 1.59998Z" fill="#428DFF"/>
<path d="M0.526742 39.9363C0.572152 39.9594 0.620858 39.9755 0.670663 39.9843C0.723764 39.9931 0.777231 39.9986 0.830697 40.0004C1.04273 39.9971 1.24525 39.9143 1.39869 39.7682C1.4712 39.6917 1.52833 39.6023 1.56678 39.5042C1.68763 39.2057 1.62171 38.8644 1.39869 38.6322C1.32215 38.5601 1.2328 38.5029 1.13465 38.4641C1.03871 38.4231 0.935434 38.4015 0.830697 38.4004C0.505868 38.3982 0.2118 38.5934 0.0872883 38.8933C-0.0372235 39.1936 0.0319904 39.5393 0.262704 39.7682L0.382821 39.8642C0.427499 39.8946 0.475839 39.9187 0.526742 39.9363Z" fill="#428DFF"/>
<path d="M8.83093 12H6.43079C5.54712 12 4.83081 12.7163 4.83081 13.6V18.3999C4.83081 19.2836 5.54712 19.9999 6.43079 19.9999H11.2307C12.1144 19.9999 12.8307 19.2836 12.8307 18.3999V17.6001C12.8307 17.1581 12.4725 16.7999 12.0309 16.7999C11.5889 16.7999 11.2307 17.1581 11.2307 17.6001V18.3999H6.43079V13.6H8.83093C9.27258 13.6 9.63074 13.2418 9.63074 12.8002C9.63074 12.3582 9.27258 12 8.83093 12Z" fill="#428DFF"/>
<path d="M4.83081 29.6005C4.83081 30.4841 5.54712 31.2004 6.43079 31.2004H11.2307C12.1144 31.2004 12.8307 30.4841 12.8307 29.6005V24.8005C12.8307 23.9169 12.1144 23.2002 11.2307 23.2002H6.43079C5.54712 23.2002 4.83081 23.9169 4.83081 24.8005V29.6005ZM6.43079 24.8005H11.2307V29.6005H6.43079V24.8005Z" fill="#428DFF"/>
<path d="M4.83081 40.8003C4.83081 41.684 5.54712 42.4003 6.43079 42.4003H11.2307C12.1144 42.4003 12.8307 41.684 12.8307 40.8003V36.0004C12.8307 35.1167 12.1144 34.4004 11.2307 34.4004H6.43079C5.54712 34.4004 4.83081 35.1167 4.83081 36.0004V40.8003ZM6.43079 36.0004H11.2307V40.8003H6.43079V36.0004Z" fill="#428DFF"/>
<path d="M16.0306 15.1996H20.0308C20.4728 15.1996 20.8309 14.8414 20.8309 14.3998C20.8309 13.9578 20.4728 13.5996 20.0308 13.5996H16.0306C15.589 13.5996 15.2308 13.9578 15.2308 14.3998C15.2308 14.8414 15.589 15.1996 16.0306 15.1996Z" fill="#428DFF"/>
<path d="M31.231 13.5996H23.2307C22.7891 13.5996 22.4309 13.9578 22.4309 14.3998C22.4309 14.8414 22.7891 15.1996 23.2307 15.1996H31.231C31.6726 15.1996 32.0308 14.8414 32.0308 14.3998C32.0308 13.9578 31.6726 13.5996 31.231 13.5996Z" fill="#428DFF"/>
<path d="M16.0306 18.3998H24.0309C24.4725 18.3998 24.8307 18.0416 24.8307 17.6C24.8307 17.158 24.4725 16.7998 24.0309 16.7998H16.0306C15.589 16.7998 15.2308 17.158 15.2308 17.6C15.2308 18.0416 15.589 18.3998 16.0306 18.3998Z" fill="#428DFF"/>
<path d="M31.231 16.7998H27.2308C26.7888 16.7998 26.4307 17.158 26.4307 17.6C26.4307 18.0416 26.7888 18.3998 27.2308 18.3998H31.231C31.6726 18.3998 32.0308 18.0416 32.0308 17.6C32.0308 17.158 31.6726 16.7998 31.231 16.7998Z" fill="#428DFF"/>
<path d="M16.0306 26.3998H20.0308C20.4728 26.3998 20.8309 26.0416 20.8309 25.5996C20.8309 25.158 20.4728 24.7998 20.0308 24.7998H16.0306C15.589 24.7998 15.2308 25.158 15.2308 25.5996C15.2308 26.0416 15.589 26.3998 16.0306 26.3998Z" fill="#428DFF"/>
<path d="M31.231 24.7998H23.2307C22.7891 24.7998 22.4309 25.158 22.4309 25.5996C22.4309 26.0416 22.7891 26.3998 23.2307 26.3998H31.231C31.6726 26.3998 32.0308 26.0416 32.0308 25.5996C32.0308 25.158 31.6726 24.7998 31.231 24.7998Z" fill="#428DFF"/>
<path d="M16.0306 29.6H24.0309C24.4725 29.6 24.8307 29.2418 24.8307 28.7998C24.8307 28.3582 24.4725 28 24.0309 28H16.0306C15.589 28 15.2308 28.3582 15.2308 28.7998C15.2308 29.2418 15.589 29.6 16.0306 29.6Z" fill="#428DFF"/>
<path d="M31.231 28H27.2308C26.7888 28 26.4307 28.3582 26.4307 28.7998C26.4307 29.2418 26.7888 29.6 27.2308 29.6H31.231C31.6726 29.6 32.0308 29.2418 32.0308 28.7998C32.0308 28.3582 31.6726 28 31.231 28Z" fill="#428DFF"/>
<path d="M16.0306 37.6H20.0308C20.4728 37.6 20.8309 37.2418 20.8309 36.8002C20.8309 36.3582 20.4728 36 20.0308 36H16.0306C15.589 36 15.2308 36.3582 15.2308 36.8002C15.2308 37.2418 15.589 37.6 16.0306 37.6Z" fill="#428DFF"/>
<path d="M31.231 36H23.2307C22.7891 36 22.4309 36.3582 22.4309 36.8002C22.4309 37.2418 22.7891 37.6 23.2307 37.6H31.231C31.6726 37.6 32.0308 37.2418 32.0308 36.8002C32.0308 36.3582 31.6726 36 31.231 36Z" fill="#428DFF"/>
<path d="M16.0306 40.8002H24.0309C24.4725 40.8002 24.8307 40.442 24.8307 40.0004C24.8307 39.5583 24.4725 39.2002 24.0309 39.2002H16.0306C15.589 39.2002 15.2308 39.5583 15.2308 40.0004C15.2308 40.442 15.589 40.8002 16.0306 40.8002Z" fill="#428DFF"/>
<path d="M31.231 39.2002H27.2308C26.7888 39.2002 26.4307 39.5583 26.4307 40.0004C26.4307 40.442 26.7888 40.8002 27.2308 40.8002H31.231C31.6726 40.8002 32.0308 40.442 32.0308 40.0004C32.0308 39.5583 31.6726 39.2002 31.231 39.2002Z" fill="#428DFF"/>
<path d="M7.46533 14.6337C7.15295 14.9461 7.15295 15.4526 7.46533 15.7649L9.06531 17.3649C9.21509 17.5147 9.4187 17.5993 9.63074 17.5993H9.69702C9.9314 17.5795 10.1456 17.4579 10.2819 17.2664L14.282 11.6663C14.4479 11.4338 14.4775 11.1302 14.3589 10.8702C14.2406 10.6098 13.9923 10.4325 13.7078 10.4051C13.4232 10.3776 13.1456 10.5043 12.9797 10.7369L9.5293 15.5679L8.59656 14.6359C8.28455 14.3232 7.77844 14.3221 7.46533 14.6337Z" fill="#428DFF"/>
</svg>
