<svg width="49" height="48" viewBox="0 0 49 48" fill="none" xmlns="http://www.w3.org/2000/svg">
<path d="M46.5947 38.4004H44.9948V15.2002C44.9948 14.7585 44.6366 14.4004 44.1949 14.4004C43.7529 14.4004 43.3948 14.7585 43.3948 15.2002V35.2001H6.59497V18.4001C6.59497 17.9585 6.23682 17.6003 5.7948 17.6003C5.35315 17.6003 4.995 17.9585 4.995 18.4001V38.4004H3.39502C2.06934 38.4004 0.994873 39.4749 0.994873 40.8002C0.994873 45.2419 4.36694 48.0002 9.79492 48.0002H40.1948C45.6228 48.0002 48.9949 45.2419 48.9949 40.8002C48.9949 39.4749 47.9204 38.4004 46.5947 38.4004ZM43.3948 36.8004V38.4004H6.59497V36.8004H43.3948ZM17.5374 42.4001L16.5771 40.0004H24.1947V42.4001H17.5374ZM25.795 40.0004H33.4133L32.4531 42.4001H25.795V40.0004ZM40.1948 46.4003H9.79492C8.10596 46.4003 2.59485 45.9963 2.59485 40.8002C2.59485 40.3585 2.953 40.0004 3.39502 40.0004H14.8534L16.0531 42.993C16.2933 43.6017 16.8818 44.0016 17.5366 44.0001H32.4531C33.1083 44.0023 33.6979 43.6031 33.9388 42.9938L35.1364 40.0004H46.5947C47.0367 40.0004 47.3949 40.3585 47.3949 40.8002C47.3949 46.0004 41.8838 46.4003 40.1948 46.4003Z" fill="#428DFF"/>
<path d="M6.59497 8.80054C6.59497 8.35852 6.95312 8.00037 7.39478 8.00037H27.395C27.8367 8.00037 28.1948 7.64221 28.1948 7.20056C28.1948 6.75855 27.8367 6.40039 27.395 6.40039H7.39478C6.06946 6.40039 4.995 7.47485 4.995 8.80054V12.0005C4.995 12.4421 5.35315 12.8007 5.7948 12.8007C6.23682 12.8007 6.59497 12.4421 6.59497 12.0005V8.80054Z" fill="#428DFF"/>
<path d="M6.09878 14.4641C6.05373 14.441 6.00503 14.4249 5.95486 14.4161C5.90212 14.4073 5.84865 14.4019 5.79482 14.4004C5.58315 14.4033 5.38027 14.4861 5.22683 14.6322C5.15468 14.7087 5.09756 14.7985 5.05874 14.8962C4.93825 15.1947 5.00381 15.536 5.22683 15.7682C5.30337 15.8407 5.39309 15.8975 5.49087 15.9363C5.58718 15.9773 5.69045 15.9989 5.79482 16.0004C6.12002 16.0022 6.41372 15.8074 6.53823 15.5071C6.66311 15.2068 6.59353 14.8611 6.36282 14.6322L6.24306 14.5363C6.19839 14.5059 6.15005 14.4817 6.09878 14.4641Z" fill="#428DFF"/>
<path d="M29.8332 21.735C30.4338 21.3413 30.8732 20.7451 31.0717 20.0548C31.4101 19.3253 31.4471 18.4915 31.175 17.7349C30.9802 17.224 30.5854 16.8146 30.0819 16.6011C30.0548 16.5901 30.0284 16.5795 30.002 16.5707C29.7735 14.4584 28.0128 12.8441 25.8884 12.7998H24.4938C22.368 12.8437 20.6058 14.4609 20.3795 16.5758C20.3443 16.5883 20.307 16.6036 20.2685 16.6187C19.7793 16.8347 19.3973 17.2383 19.2091 17.7389C18.9337 18.5167 18.9798 19.3722 19.338 20.1156C19.5332 20.7843 19.9635 21.3593 20.5501 21.735C20.7852 22.6033 21.2104 23.4086 21.7949 24.0923V24.6075C21.6835 25.6025 21.0083 26.4437 20.0612 26.7675C19.9367 26.8063 19.8089 26.833 19.6796 26.8477L17.7845 27.0875C15.9648 27.2794 14.5864 28.8182 14.5948 30.6475V31.9995C14.6014 32.4635 14.8046 32.903 15.1544 33.208C15.5037 33.5131 15.9663 33.6555 16.427 33.5995H34.3629C34.8236 33.6555 35.2861 33.5131 35.6354 33.208C35.9848 32.903 36.1881 32.4635 36.1946 31.9995V30.6475C36.206 28.8164 34.8272 27.2754 33.0061 27.0835L30.6982 26.8436C30.5715 26.8301 30.4462 26.8033 30.3254 26.7638C30.3085 26.7579 30.2913 26.7535 30.2741 26.7499C29.1989 26.4045 28.194 25.374 28.194 24.6083V24.5083C28.9836 23.751 29.5505 22.7919 29.8332 21.735ZM21.2349 20.2852C21.0423 20.02 20.8896 19.7278 20.7819 19.418C20.6171 19.0792 20.5886 18.6899 20.7021 18.3307C20.7274 18.2615 20.768 18.1981 20.8204 18.1461C21.0679 18.2637 21.3584 18.2465 21.5898 18.1003C21.8216 17.9542 21.9626 17.7001 21.9637 17.4261V17.0068C21.9619 15.5958 23.0836 14.4401 24.4938 14.3998H25.8884C27.3001 14.4364 28.4251 15.5914 28.4251 17.0035V17.4229C28.4259 17.6971 28.5672 17.952 28.7994 18.0981C29.0316 18.2443 29.3223 18.2611 29.5699 18.1428C29.6215 18.1956 29.6618 18.2585 29.6875 18.3278C29.8013 18.7108 29.7622 19.1232 29.578 19.478C29.4802 19.7754 29.3242 20.05 29.1187 20.2859C28.7434 20.3035 28.4306 20.5803 28.3676 20.9509C28.1929 21.9683 27.6561 22.8885 26.8563 23.5411C26.8486 23.5485 26.8365 23.5525 26.8284 23.5605C26.3619 23.9297 25.7866 24.1344 25.1915 24.1428C23.5428 24.1428 22.2812 22.5198 22.0157 20.9517C21.9377 20.5774 21.6165 20.3035 21.2349 20.2852ZM34.5947 30.6475V31.9731C34.5192 31.9926 34.4409 32.0013 34.3629 31.9995H16.427C16.3486 32.001 16.2706 31.9922 16.1948 31.9731V30.6475C16.1871 29.6309 16.9547 28.7758 17.9661 28.6732L19.8532 28.4333C19.9536 28.4227 20.0535 28.4066 20.1524 28.3854C21.6978 29.2174 23.4322 29.6356 25.1867 29.5997C26.9464 29.6374 28.6851 29.2145 30.2309 28.3726C30.3342 28.3986 30.4389 28.4194 30.5444 28.4348L32.8413 28.6747C33.8465 28.7831 34.6053 29.6367 34.5947 30.6475ZM28.3317 27.4995C27.3184 27.8401 26.2557 28.0093 25.1867 27.9998C24.0888 28.0067 22.9975 27.8273 21.9597 27.4691C22.6265 26.9037 23.099 26.1423 23.3092 25.2931C24.38 25.8398 25.6357 25.8933 26.7493 25.4403C27.0562 26.2712 27.6081 26.989 28.3317 27.4995Z" fill="#428DFF"/>
<path d="M47.3949 0H31.3948C30.5111 0 29.7948 0.716309 29.7948 1.59998V11.1998C29.7948 12.0835 30.5111 12.8002 31.3948 12.8002H32.1949V13.7054C32.1938 14.2961 32.5179 14.8392 33.0383 15.1183C33.5587 15.3977 34.1908 15.3673 34.6823 15.0399L38.0349 12.8002H47.3949C48.2786 12.8002 48.9949 12.0835 48.9949 11.1998V1.59998C48.9949 0.716309 48.2786 0 47.3949 0ZM47.3949 11.1998H38.0349C37.7189 11.1995 37.4098 11.2932 37.1469 11.4686L33.7949 13.7054V12.8002C33.7949 11.9165 33.0786 11.1998 32.1949 11.1998H31.3948V1.59998H47.3949V11.1998Z" fill="#428DFF"/>
<path d="M33.7949 4.80017H44.9948C45.4368 4.80017 45.7949 4.44202 45.7949 4.00037C45.7949 3.55835 45.4368 3.2002 44.9948 3.2002H33.7949C33.3529 3.2002 32.9948 3.55835 32.9948 4.00037C32.9948 4.44202 33.3529 4.80017 33.7949 4.80017Z" fill="#428DFF"/>
<path d="M33.7949 8.00037H44.9948C45.4368 8.00037 45.7949 7.64221 45.7949 7.20056C45.7949 6.75855 45.4368 6.40039 44.9948 6.40039H33.7949C33.3529 6.40039 32.9948 6.75855 32.9948 7.20056C32.9948 7.64221 33.3529 8.00037 33.7949 8.00037Z" fill="#428DFF"/>
</svg>
